<?xml version="1.0" encoding="UTF-8" standalone="no"?>
<svg
   xmlns:dc="http://purl.org/dc/elements/1.1/"
   xmlns:cc="http://creativecommons.org/ns#"
   xmlns:rdf="http://www.w3.org/1999/02/22-rdf-syntax-ns#"
   xmlns:svg="http://www.w3.org/2000/svg"
   xmlns="http://www.w3.org/2000/svg"
   viewBox="0 0 592 222.66667"
   height="222.66667"
   width="592"
   xml:space="preserve"
   id="svg2"
   version="1.1"><metadata
     id="metadata8"><rdf:RDF><cc:Work
         rdf:about=""><dc:format>image/svg+xml</dc:format><dc:type
           rdf:resource="http://purl.org/dc/dcmitype/StillImage" /></cc:Work></rdf:RDF></metadata><defs
     id="defs6" /><g
     transform="matrix(1.3333333,0,0,-1.3333333,0,222.66667)"
     id="g10"><g
       transform="scale(0.1)"
       id="g12"><path
         id="path14"
         style="fill:#234c73;fill-opacity:1;fill-rule:evenodd;stroke:none"
         d="m 896.449,1215.23 c -19.219,67.82 -67.469,104.46 -144.648,109.89 -0.391,0 -9.461,-0.16 -27.231,-0.55 v -59.26 h -87.582 v -41.36 h 87.582 v -72.35 h -87.582 v -41.33 h 87.582 v -59.29 c 17.77,-0.39 26.84,-0.55 27.231,-0.55 59.84,2.54 103.668,27.38 131.597,74.53 48.243,-25.04 91.762,-56.21 130.552,-93.59 L 801.801,740.898 C 752.5,674.922 695.391,641.332 630.469,640.27 c -64.918,1.449 -122.028,35 -171.367,100.628 L 250.23,1027.07 c 39.18,39.14 83.911,71.76 134.379,97.89 27.192,-47.15 71.051,-71.99 131.602,-74.53 0,0.39 8.91,0.55 26.641,0.55 v 273.59 c -17.731,0.39 -26.641,0.55 -26.641,0.55 -77.582,-5.43 -126.172,-42.07 -145.742,-109.89 C 256.211,1161.95 166.289,1084.34 100.621,982.422 34.6484,880.199 1.08984,765.738 0,639.18 4.73047,460.039 66.7188,310.781 186.051,191.48 305.352,71.8398 454.609,9.83984 633.711,5.42969 813.238,10.1602 962.461,72.1914 1081.41,191.48 c 119.33,118.989 181.32,268.168 186.05,447.7 -1.44,126.558 -35,241.019 -100.62,343.242 -66.02,101.918 -156.18,179.528 -270.391,232.808 M 633.711,93.0508 C 479.262,97.0313 350.469,150.309 247.5,252.969 144.879,355.98 91.6016,484.691 87.5781,639.18 v 0.55 C 89.3789,751.801 119.84,852.27 178.949,941.09 L 323.121,688.672 c 32.617,-53.281 62.93,-121.832 90.859,-205.582 28.641,-84.141 47.86,-188.602 57.661,-313.36 51.129,-17.429 105.16,-26.449 162.07,-27.191 55.859,0.742 108.988,9.609 159.379,26.641 11.25,137.461 32.461,249.531 63.672,336.172 31.168,86.328 64.527,156.289 100.078,209.957 l 128.94,230.16 c 60.9,-90.309 92.07,-192.231 93.52,-305.739 v -0.55 C 1175.7,484.691 1122.42,355.98 1019.38,252.969 916.762,150.309 788.199,97.0313 633.711,93.0508" /><path
         id="path16"
         style="fill:#234c73;fill-opacity:1;fill-rule:evenodd;stroke:none"
         d="m 503.16,832.27 c 0.75,-36.961 13.442,-67.821 38.09,-92.469 24.648,-24.289 55.27,-36.949 91.91,-38.082 37.039,1.133 67.86,13.793 92.5,38.082 24.301,24.648 37,55.508 38.051,92.469 -1.051,36.64 -13.75,67.3 -38.051,91.949 -24.64,24.691 -55.461,37.34 -92.5,38.051 -36.64,-0.711 -67.262,-13.36 -91.91,-38.051 C 516.602,899.57 503.91,868.91 503.16,832.27" /><path
         id="path18"
         style="fill:#f8b84a;fill-opacity:1;fill-rule:evenodd;stroke:none"
         d="m 1042.81,1670 -252.97,-148.48 46.25,-21.75 -144.141,-144.18 252.93,147.42 -46.207,22.85 144.138,144.14" /><path
         id="path20"
         style="fill:#f8b84a;fill-opacity:1;fill-rule:evenodd;stroke:none"
         d="M 484.141,1521.52 231.172,1670 l 144.18,-144.14 -46.25,-22.85 252.929,-147.42 -144.14,144.18 46.25,21.75" /><path
         id="path22"
         style="fill:#f8b84a;fill-opacity:1;fill-rule:evenodd;stroke:none"
         d="m 640.078,299.73 h -68.359 v 232.071 h 66.133 c 21.128,0 37.027,-5.16 47.738,-15.469 10.66,-10.312 16.012,-25.781 16.012,-46.371 0,-10.859 -2.731,-20.43 -8.122,-28.711 -5.429,-8.281 -12.781,-14.691 -22,-19.262 10.629,-3.199 19.032,-9.718 25.239,-19.609 6.25,-9.879 9.332,-21.789 9.332,-35.699 0,-20.821 -5.699,-37.192 -17.141,-49.102 C 677.5,305.699 661.211,299.73 640.078,299.73 Z m 1.293,108.551 H 600.859 V 324.77 h 39.84 c 11.063,0 19.852,3.628 26.332,10.89 6.449,7.309 9.688,17.539 9.688,30.711 0,27.93 -11.797,41.91 -35.348,41.91 z m -40.512,98.321 v -73.793 h 37.461 c 10.121,0 18.239,3.402 24.45,10.203 6.25,6.789 9.339,15.82 9.339,27.109 0,12.731 -2.808,21.988 -8.437,27.809 -5.621,5.781 -14.262,8.672 -25.82,8.672 z" /><path
         id="path24"
         style="fill:#f9b84c;fill-opacity:1;fill-rule:nonzero;stroke:none"
         d="m 1475.16,715.699 v 68.602 c 12.38,-10.43 25.86,-18.25 40.46,-23.442 14.58,-5.238 29.3,-7.808 44.22,-7.808 8.75,0 16.33,0.777 22.82,2.34 6.56,1.558 12.03,3.668 16.4,6.41 4.38,2.808 7.58,6.09 9.69,9.84 2.19,3.828 3.28,8.007 3.28,12.5 0,5.937 -1.72,11.25 -5.15,15.937 -3.44,4.762 -8.13,9.141 -14.07,13.121 -5.93,4.071 -13.04,7.891 -21.25,11.571 -8.12,3.75 -16.87,7.531 -26.25,11.402 -24.06,10.078 -42.03,22.348 -53.9,36.719 -11.8,14.449 -17.66,31.91 -17.66,52.339 0,16.02 3.2,29.77 9.69,41.25 6.44,11.571 15.19,21.02 26.25,28.442 11.13,7.498 23.98,13.008 38.59,16.558 14.57,3.52 30.04,5.32 46.41,5.32 16.01,0 30.19,-1.02 42.5,-2.97 12.38,-1.88 23.79,-4.85 34.22,-8.91 v -64.221 c -5.12,3.641 -10.75,6.801 -16.88,9.531 -6.05,2.7 -12.3,4.93 -18.75,6.719 -6.37,1.762 -12.77,3.051 -19.22,3.91 -6.36,0.942 -12.42,1.411 -18.12,1.411 -7.82,0 -14.96,-0.79 -21.41,-2.348 -6.48,-1.481 -11.95,-3.551 -16.41,-6.25 -4.37,-2.731 -7.81,-6.012 -10.31,-9.844 -2.42,-3.75 -3.59,-7.969 -3.59,-12.656 0,-5.231 1.33,-9.844 4.06,-13.902 2.81,-4.071 6.72,-7.93 11.72,-11.571 5,-3.668 11.02,-7.258 18.12,-10.777 7.19,-3.551 15.32,-7.152 24.38,-10.781 12.27,-5.231 23.32,-10.743 33.12,-16.563 9.77,-5.738 18.17,-12.269 25.16,-19.527 7.07,-7.313 12.42,-15.629 16.1,-25 3.74,-9.379 5.62,-20.281 5.62,-32.66 0,-17.192 -3.28,-31.641 -9.84,-43.282 -6.49,-11.679 -15.28,-21.168 -26.41,-28.437 -11.17,-7.192 -24.18,-12.344 -39.06,-15.473 -14.81,-3.121 -30.43,-4.679 -46.88,-4.679 -16.87,0 -32.93,1.48 -48.12,4.371 -15.24,2.808 -28.4,7.07 -39.53,12.808 z m 451.21,78.75 h -143.28 c 2.26,-31.988 22.38,-47.969 60.31,-47.969 24.14,0 45.39,5.711 63.75,17.192 V 714.77 c -20.31,-10.86 -46.72,-16.25 -79.22,-16.25 -35.55,0 -63.09,9.761 -82.66,29.371 -19.61,19.687 -29.37,47.109 -29.37,82.339 0,36.571 10.55,65.469 31.72,86.719 21.13,21.332 47.18,32.031 78.12,32.031 32.07,0 56.88,-9.531 74.38,-28.589 17.5,-19.063 26.25,-44.922 26.25,-77.5 z m -62.82,41.571 c 0,31.441 -12.77,47.179 -38.28,47.179 -10.86,0 -20.23,-4.527 -28.12,-13.59 -7.93,-8.988 -12.77,-20.16 -14.53,-33.589 z" /><path
         id="path26"
         style="fill:#f9b84c;fill-opacity:1;fill-rule:nonzero;stroke:none"
         d="m 2099.61,706.328 c -10,-5.199 -25.12,-7.808 -45.31,-7.808 -47.82,0 -71.72,24.761 -71.72,74.371 V 873.52 h -35.63 v 50.152 h 35.63 v 47.348 l 67.65,19.371 v -66.719 h 49.38 V 873.52 h -49.38 v -88.75 c 0,-22.93 9.07,-34.379 27.19,-34.379 7.19,0 14.57,2.07 22.19,6.25 z" /><path
         id="path28"
         style="fill:#f9b84c;fill-opacity:1;fill-rule:nonzero;stroke:none"
         d="m 2139.65,797.43 h 117.5 v 47.3398 h -117.5 z" /><path
         id="path30"
         style="fill:#f9b84c;fill-opacity:1;fill-rule:nonzero;stroke:none"
         d="m 2592.5,703.828 h -75.47 l -21.87,68.442 h -109.54 l -21.71,-68.442 h -75 l 112.03,307.812 h 82.18 z m -113.28,121.723 -32.97,103.429 c -2.5,7.7 -4.22,16.918 -5.16,27.661 h -1.71 c -0.75,-9.063 -2.58,-18.051 -5.47,-26.871 l -33.44,-104.219 z" /><path
         id="path32"
         style="fill:#f9b84c;fill-opacity:1;fill-rule:nonzero;stroke:none"
         d="m 2609.92,709.609 v 55 c 11.13,-6.8 22.23,-11.839 33.28,-15.16 11.14,-3.238 21.6,-4.84 31.41,-4.84 12.07,0 21.56,1.602 28.44,4.84 6.95,3.321 10.47,8.36 10.47,15.16 0,4.262 -1.57,7.813 -4.69,10.621 -3.13,2.891 -7.19,5.391 -12.19,7.5 -4.92,2.192 -10.31,4.11 -16.25,5.79 -5.86,1.75 -11.48,3.75 -16.87,5.929 -8.75,3.211 -16.49,6.723 -23.13,10.473 -6.56,3.828 -12.15,8.277 -16.72,13.277 -4.49,5 -7.93,10.781 -10.31,17.352 -2.31,6.64 -3.44,14.449 -3.44,23.429 0,12.27 2.66,22.86 7.97,31.719 5.39,8.949 12.54,16.25 21.41,21.879 8.94,5.621 19.14,9.723 30.62,12.344 11.56,2.699 23.6,4.058 36.1,4.058 9.68,0 19.53,-0.781 29.53,-2.339 10.07,-1.481 20,-3.59 29.68,-6.411 v -52.5 c -8.55,5 -17.73,8.75 -27.5,11.25 -9.8,2.579 -19.45,3.911 -28.9,3.911 -4.49,0 -8.71,-0.43 -12.66,-1.25 -3.87,-0.86 -7.3,-1.993 -10.31,-3.442 -3.05,-1.48 -5.43,-3.398 -7.19,-5.777 -1.68,-2.422 -2.5,-5.121 -2.5,-8.121 0,-3.992 1.29,-7.422 3.91,-10.321 2.58,-2.808 5.94,-5.269 10,-7.339 4.14,-2.11 8.79,-3.981 13.9,-5.621 5.08,-1.571 10.16,-3.25 15.16,-5 8.95,-3.129 17.07,-6.571 24.38,-10.321 7.26,-3.75 13.51,-8.121 18.75,-13.121 5.31,-5 9.29,-10.898 12.03,-17.656 2.81,-6.684 4.22,-14.652 4.22,-23.902 0,-13.051 -2.82,-24.18 -8.44,-33.442 -5.63,-9.18 -13.13,-16.68 -22.5,-22.5 -9.38,-5.859 -20.24,-10.078 -32.5,-12.656 -12.19,-2.582 -24.85,-3.902 -37.97,-3.902 -24.3,0 -46.68,3.71 -67.19,11.089 z" /><path
         id="path34"
         style="fill:#f9b84c;fill-opacity:1;fill-rule:nonzero;stroke:none"
         d="m 2851.68,958.359 c -11.37,0 -20.74,3.36 -28.13,10.161 -7.3,6.75 -10.93,15.07 -10.93,25 0,10.19 3.63,18.47 10.93,24.84 7.39,6.44 16.76,9.69 28.13,9.69 11.64,0 21.09,-3.25 28.28,-9.69 7.19,-6.37 10.78,-14.65 10.78,-24.84 0,-10.321 -3.59,-18.75 -10.78,-25.321 -7.19,-6.558 -16.64,-9.84 -28.28,-9.84 z m 33.59,-254.531 h -67.8086 v 219.844 h 67.8086 z" /><path
         id="path36"
         style="fill:#f9b84c;fill-opacity:1;fill-rule:nonzero;stroke:none"
         d="m 3157.77,703.828 h -67.81 v 30.313 h -0.94 c -15.43,-23.75 -38.08,-35.621 -67.97,-35.621 -27.5,0 -49.64,9.679 -66.4,29.058 -16.68,19.371 -25,46.442 -25,81.25 0,36.332 9.22,65.473 27.65,87.344 18.44,21.879 42.58,32.808 72.5,32.808 28.32,0 48.05,-10.152 59.22,-30.46 h 0.94 v 130.62 h 67.81 z m -66.56,106.871 v 16.571 c 0,14.25 -4.18,26.089 -12.5,35.46 -8.24,9.461 -19.02,14.219 -32.34,14.219 -15,0 -26.72,-5.898 -35.16,-17.648 -8.44,-11.801 -12.66,-27.973 -12.66,-48.602 0,-19.289 4.07,-34.179 12.19,-44.679 8.13,-10.43 19.42,-15.629 33.91,-15.629 13.75,0 24.92,5.507 33.59,16.558 8.64,11.02 12.97,25.629 12.97,43.75 z" /><path
         id="path38"
         style="fill:#f9b84c;fill-opacity:1;fill-rule:nonzero;stroke:none"
         d="m 3412.23,794.449 h -143.28 c 2.26,-31.988 22.38,-47.969 60.31,-47.969 24.14,0 45.39,5.711 63.75,17.192 V 714.77 c -20.31,-10.86 -46.72,-16.25 -79.22,-16.25 -35.55,0 -63.09,9.761 -82.66,29.371 -19.61,19.687 -29.37,47.109 -29.37,82.339 0,36.571 10.54,65.469 31.72,86.719 21.13,21.332 47.18,32.031 78.12,32.031 32.07,0 56.88,-9.531 74.38,-28.589 17.5,-19.063 26.25,-44.922 26.25,-77.5 z m -62.82,41.571 c 0,31.441 -12.77,47.179 -38.28,47.179 -10.86,0 -20.23,-4.527 -28.12,-13.59 -7.93,-8.988 -12.78,-20.16 -14.53,-33.589 z" /><path
         id="path40"
         style="fill:#f9b84c;fill-opacity:1;fill-rule:nonzero;stroke:none"
         d="m 3454.69,797.43 h 117.5 v 47.3398 h -117.5 z" /><path
         id="path42"
         style="fill:#f9b84c;fill-opacity:1;fill-rule:nonzero;stroke:none"
         d="m 3622.85,715.699 v 68.602 c 12.38,-10.43 25.86,-18.25 40.47,-23.442 14.57,-5.238 29.3,-7.808 44.22,-7.808 8.75,0 16.33,0.777 22.81,2.34 6.56,1.558 12.03,3.668 16.41,6.41 4.37,2.808 7.58,6.09 9.69,9.84 2.18,3.828 3.28,8.007 3.28,12.5 0,5.937 -1.72,11.25 -5.16,15.937 -3.44,4.762 -8.12,9.141 -14.06,13.121 -5.94,4.071 -13.05,7.891 -21.25,11.571 -8.13,3.75 -16.88,7.531 -26.25,11.402 -24.06,10.078 -42.03,22.348 -53.91,36.719 -11.8,14.449 -17.65,31.91 -17.65,52.339 0,16.02 3.2,29.77 9.68,41.25 6.45,11.571 15.2,21.02 26.25,28.442 11.14,7.498 23.99,13.008 38.6,16.558 14.57,3.52 30.04,5.32 46.4,5.32 16.02,0 30.2,-1.02 42.5,-2.97 12.39,-1.88 23.79,-4.85 34.22,-8.91 v -64.221 c -5.12,3.641 -10.74,6.801 -16.87,9.531 -6.06,2.7 -12.31,4.93 -18.75,6.719 -6.37,1.762 -12.78,3.051 -19.22,3.91 -6.37,0.942 -12.42,1.411 -18.13,1.411 -7.81,0 -14.96,-0.79 -21.4,-2.348 -6.49,-1.481 -11.96,-3.551 -16.41,-6.25 -4.37,-2.731 -7.81,-6.012 -10.31,-9.844 -2.42,-3.75 -3.6,-7.969 -3.6,-12.656 0,-5.231 1.33,-9.844 4.07,-13.902 2.81,-4.071 6.72,-7.93 11.72,-11.571 5,-3.668 11.01,-7.258 18.12,-10.777 7.19,-3.551 15.31,-7.152 24.38,-10.781 12.26,-5.231 23.32,-10.743 33.12,-16.563 9.77,-5.738 18.16,-12.269 25.16,-19.527 7.07,-7.313 12.42,-15.629 16.09,-25 3.75,-9.379 5.63,-20.281 5.63,-32.66 0,-17.192 -3.29,-31.641 -9.85,-43.282 -6.48,-11.679 -15.27,-21.168 -26.4,-28.437 -11.18,-7.192 -24.18,-12.344 -39.07,-15.473 -14.8,-3.121 -30.43,-4.679 -46.87,-4.679 -16.88,0 -32.93,1.48 -48.13,4.371 -15.23,2.808 -28.4,7.07 -39.53,12.808 z" /><path
         id="path44"
         style="fill:#f9b84c;fill-opacity:1;fill-rule:nonzero;stroke:none"
         d="m 4059.49,703.828 h -64.22 v 31.563 h -0.78 c -14.8,-24.61 -36.64,-36.871 -65.47,-36.871 -21.36,0 -38.2,6.011 -50.47,18.121 -12.18,12.07 -18.28,28.16 -18.28,48.281 0,42.699 25.24,67.348 75.78,73.906 l 59.69,7.973 c 0,24.058 -13.04,36.09 -39.06,36.09 -26.17,0 -51.06,-7.813 -74.69,-23.442 v 51.102 c 9.46,4.758 22.39,9.058 38.75,12.808 16.33,3.75 31.25,5.621 44.69,5.621 62.69,0 94.06,-31.25 94.06,-93.75 z m -63.75,89.223 v 14.84 l -39.84,-5.161 c -22.11,-2.808 -33.13,-12.769 -33.13,-29.839 0,-7.731 2.66,-14.063 7.97,-19.063 5.39,-4.918 12.7,-7.348 21.88,-7.348 12.69,0 23.04,4.379 31.09,13.129 8.01,8.832 12.03,20 12.03,33.442 z" /><path
         id="path46"
         style="fill:#f9b84c;fill-opacity:1;fill-rule:nonzero;stroke:none"
         d="m 4246.41,706.328 c -10,-5.199 -25.12,-7.808 -45.32,-7.808 -47.81,0 -71.71,24.761 -71.71,74.371 V 873.52 h -35.63 v 50.152 h 35.63 v 47.348 l 67.65,19.371 v -66.719 h 49.38 V 873.52 h -49.38 v -88.75 c 0,-22.93 9.06,-34.379 27.19,-34.379 7.19,0 14.57,2.07 22.19,6.25 z" /><path
         id="path48"
         style="fill:#f9b84c;fill-opacity:1;fill-rule:nonzero;stroke:none"
         d="m 4270.04,709.609 v 55 c 11.13,-6.8 22.23,-11.839 33.28,-15.16 11.13,-3.238 21.6,-4.84 31.41,-4.84 12.07,0 21.56,1.602 28.43,4.84 6.96,3.321 10.47,8.36 10.47,15.16 0,4.262 -1.56,7.813 -4.68,10.621 -3.13,2.891 -7.19,5.391 -12.19,7.5 -4.92,2.192 -10.31,4.11 -16.25,5.79 -5.86,1.75 -11.49,3.75 -16.88,5.929 -8.75,3.211 -16.48,6.723 -23.12,10.473 -6.56,3.828 -12.15,8.277 -16.72,13.277 -4.49,5 -7.93,10.781 -10.31,17.352 -2.31,6.64 -3.44,14.449 -3.44,23.429 0,12.27 2.66,22.86 7.97,31.719 5.39,8.949 12.54,16.25 21.4,21.879 8.95,5.621 19.14,9.723 30.63,12.344 11.56,2.699 23.59,4.058 36.09,4.058 9.69,0 19.53,-0.781 29.53,-2.339 10.08,-1.481 20,-3.59 29.69,-6.411 v -52.5 c -8.55,5 -17.73,8.75 -27.5,11.25 -9.8,2.579 -19.45,3.911 -28.9,3.911 -4.5,0 -8.72,-0.43 -12.66,-1.25 -3.87,-0.86 -7.31,-1.993 -10.31,-3.442 -3.05,-1.48 -5.43,-3.398 -7.19,-5.777 -1.68,-2.422 -2.5,-5.121 -2.5,-8.121 0,-3.992 1.29,-7.422 3.91,-10.321 2.57,-2.808 5.93,-5.269 10,-7.339 4.14,-2.11 8.78,-3.981 13.9,-5.621 5.08,-1.571 10.16,-3.25 15.16,-5 8.94,-3.129 17.07,-6.571 24.37,-10.321 7.27,-3.75 13.52,-8.121 18.75,-13.121 5.32,-5 9.3,-10.898 12.03,-17.656 2.82,-6.684 4.22,-14.652 4.22,-23.902 0,-13.051 -2.81,-24.18 -8.43,-33.442 -5.63,-9.18 -13.13,-16.68 -22.5,-22.5 -9.38,-5.859 -20.24,-10.078 -32.5,-12.656 -12.19,-2.582 -24.85,-3.902 -37.97,-3.902 -24.3,0 -46.68,3.71 -67.19,11.089 z" /><path
         id="path50"
         style="fill:#254d73;fill-opacity:1;fill-rule:nonzero;stroke:none"
         d="m 1464.38,389.609 v 33.59 c 6.01,-5.109 12.57,-8.98 19.68,-11.558 7.19,-2.5 14.42,-3.75 21.72,-3.75 4.26,0 7.97,0.347 11.1,1.089 3.2,0.821 5.85,1.918 7.96,3.29 2.19,1.32 3.79,2.89 4.85,4.679 1.13,1.883 1.72,3.91 1.72,6.102 0,3 -0.9,5.66 -2.66,7.969 -1.68,2.261 -3.98,4.371 -6.87,6.25 -2.93,1.949 -6.37,3.82 -10.32,5.621 -3.98,1.879 -8.24,3.789 -12.81,5.781 -11.8,4.879 -20.59,10.816 -26.41,17.808 -5.74,7.071 -8.59,15.629 -8.59,25.629 0,7.891 1.56,14.692 4.69,20.313 3.12,5.629 7.38,10.238 12.81,13.91 5.39,3.629 11.64,6.289 18.75,7.969 7.19,1.75 14.77,2.648 22.81,2.648 7.81,0 14.73,-0.539 20.78,-1.558 6.14,-0.942 11.76,-2.34 16.88,-4.219 V 499.77 c -2.62,1.75 -5.43,3.281 -8.44,4.531 -2.93,1.32 -5.94,2.418 -9.06,3.281 -3.13,0.938 -6.25,1.598 -9.38,2.027 -3.12,0.391 -6.09,0.621 -8.9,0.621 -3.87,0 -7.35,-0.39 -10.47,-1.089 -3.13,-0.743 -5.78,-1.801 -7.97,-3.121 -2.19,-1.372 -3.91,-2.969 -5.16,-4.848 -1.17,-1.793 -1.71,-3.832 -1.71,-6.09 0,-2.621 0.66,-4.922 2.03,-6.883 1.32,-1.988 3.2,-3.859 5.62,-5.617 2.5,-1.801 5.47,-3.562 8.91,-5.312 3.51,-1.68 7.5,-3.438 11.87,-5.321 6.02,-2.5 11.45,-5.148 16.25,-7.969 4.77,-2.808 8.91,-6.05 12.35,-9.679 3.43,-3.563 6.01,-7.621 7.81,-12.192 1.87,-4.609 2.81,-9.918 2.81,-15.937 0,-8.442 -1.64,-15.551 -4.84,-21.25 -3.13,-5.621 -7.46,-10.231 -12.97,-13.75 -5.43,-3.551 -11.8,-6.094 -19.06,-7.652 -7.19,-1.571 -14.81,-2.348 -22.82,-2.348 -8.36,0 -16.25,0.738 -23.75,2.187 -7.42,1.332 -13.82,3.442 -19.21,6.25 z m 213.67,-5.781 h -31.41 v 15.473 h -0.47 c -7.19,-12.11 -17.89,-18.129 -32.03,-18.129 -10.43,0 -18.67,2.969 -24.69,8.91 -5.93,5.938 -8.9,13.789 -8.9,23.59 0,20.937 12.34,33.008 37.03,36.25 l 29.22,3.75 c 0,11.758 -6.37,17.66 -19.07,17.66 -12.81,0 -25,-3.832 -36.56,-11.41 v 25 c 4.69,2.379 10.98,4.457 18.91,6.25 8.01,1.879 15.35,2.808 22.03,2.808 30.62,0 45.94,-15.308 45.94,-45.929 z m -31.25,43.754 v 7.188 l -19.53,-2.5 c -10.75,-1.489 -16.1,-6.372 -16.1,-14.688 0,-3.75 1.29,-6.844 3.91,-9.223 2.58,-2.418 6.13,-3.589 10.62,-3.589 6.25,0 11.29,2.109 15.16,6.402 3.94,4.258 5.94,9.726 5.94,16.41 z" /><path
         id="path52"
         style="fill:#254d73;fill-opacity:1;fill-rule:nonzero;stroke:none"
         d="m 1806.8,491.332 -40,-107.504 h -37.66 l -38.12,107.504 h 35.46 l 18.6,-66.25 c 2.19,-7.5 3.44,-13.871 3.75,-19.062 h 0.47 c 0.39,4.878 1.64,11.011 3.75,18.429 l 19.22,66.883 z" /><path
         id="path54"
         style="fill:#254d73;fill-opacity:1;fill-rule:nonzero;stroke:none"
         d="m 1917.81,428.199 h -70 c 1.02,-15.617 10.82,-23.429 29.38,-23.429 11.87,0 22.26,2.73 31.25,8.281 v -23.91 c -9.92,-5.313 -22.82,-7.969 -38.75,-7.969 -17.42,0 -30.9,4.769 -40.47,14.379 -9.61,9.679 -14.38,23.121 -14.38,40.308 0,17.891 5.16,32.071 15.47,42.5 10.39,10.391 23.17,15.621 38.28,15.621 15.71,0 27.86,-4.679 36.41,-14.058 8.52,-9.301 12.81,-21.871 12.81,-37.813 z m -30.62,20.321 c 0,15.39 -6.25,23.121 -18.75,23.121 -5.32,0 -9.96,-2.262 -13.91,-6.719 -3.87,-4.371 -6.21,-9.84 -7.03,-16.402 z" /><path
         id="path56"
         style="fill:#254d73;fill-opacity:1;fill-rule:nonzero;stroke:none"
         d="m 2000.12,383.828 v 150.473 h 54.84 c 16.76,0 29.69,-3.09 38.75,-9.219 9.06,-6.172 13.59,-14.812 13.59,-25.941 0,-8.121 -2.77,-15.27 -8.28,-21.411 -5.54,-6.05 -12.57,-10.269 -21.09,-12.648 v -0.473 c 10.7,-1.25 19.26,-5.23 25.62,-11.879 6.45,-6.558 9.69,-14.531 9.69,-23.898 0,-13.871 -4.96,-24.852 -14.84,-32.973 -9.92,-8.05 -23.4,-12.031 -40.47,-12.031 z m 33.9,125.621 v -35.777 h 15 c 6.96,0 12.43,1.637 16.41,5 4.06,3.437 6.09,8.129 6.09,14.058 0,11.141 -8.24,16.719 -24.68,16.719 z m 0,-60.929 v -39.688 h 18.44 c 7.81,0 13.91,1.789 18.28,5.469 4.46,3.629 6.72,8.59 6.72,14.84 0,6.019 -2.19,10.781 -6.56,14.218 -4.38,3.442 -10.47,5.161 -18.28,5.161 z" /><path
         id="path58"
         style="fill:#254d73;fill-opacity:1;fill-rule:nonzero;stroke:none"
         d="m 2151.48,508.359 c -5.62,0 -10.23,1.641 -13.75,5 -3.55,3.321 -5.31,7.379 -5.31,12.192 0,5 1.76,9.058 5.31,12.179 3.52,3.129 8.13,4.692 13.75,4.692 5.63,0 10.2,-1.563 13.75,-4.692 3.52,-3.121 5.32,-7.179 5.32,-12.179 0,-5 -1.8,-9.141 -5.32,-12.352 -3.55,-3.238 -8.12,-4.84 -13.75,-4.84 z m 16.41,-124.531 h -33.2813 v 107.504 h 33.2813 z" /><path
         id="path60"
         style="fill:#254d73;fill-opacity:1;fill-rule:nonzero;stroke:none"
         d="m 2260.94,385.078 c -4.92,-2.578 -12.31,-3.906 -22.19,-3.906 -23.36,0 -35,12.109 -35,36.41 v 49.219 h -17.34 v 24.531 h 17.34 v 23.117 l 33.13,9.531 v -32.648 h 24.06 v -24.531 h -24.06 v -43.442 c 0,-11.168 4.41,-16.718 13.28,-16.718 3.51,0 7.11,0.98 10.78,2.968 z" /><path
         id="path62"
         style="fill:#254d73;fill-opacity:1;fill-rule:nonzero;stroke:none"
         d="m 2361.09,387.73 c -7.5,-4.371 -18.36,-6.558 -32.5,-6.558 -16.48,0 -29.84,5 -40.15,15 -10.24,10 -15.32,22.887 -15.32,38.75 0,18.316 5.47,32.738 16.41,43.277 11.02,10.512 25.7,15.781 44.06,15.781 12.58,0 21.76,-1.679 27.5,-5 v -28.281 c -6.99,5.199 -14.76,7.821 -23.28,7.821 -9.49,0 -17.03,-2.821 -22.65,-8.438 -5.55,-5.551 -8.28,-13.203 -8.28,-22.973 0,-9.488 2.65,-16.949 7.96,-22.339 5.32,-5.43 12.66,-8.129 22.04,-8.129 8.2,0 16.28,2.578 24.21,7.808 z" /><path
         id="path64"
         style="fill:#254d73;fill-opacity:1;fill-rule:nonzero;stroke:none"
         d="m 2434.1,381.172 c -17.93,0 -32.03,5 -42.34,15 -10.24,10.078 -15.31,23.75 -15.31,40.937 0,17.813 5.31,31.723 15.93,41.723 10.71,10.078 25.16,15.148 43.28,15.148 17.82,0 31.76,-5.07 41.88,-15.148 10.19,-10 15.31,-23.281 15.31,-39.852 0,-17.808 -5.27,-31.949 -15.78,-42.339 -10.43,-10.313 -24.77,-15.469 -42.97,-15.469 z m 0.94,87.348 c -7.93,0 -14.06,-2.739 -18.44,-8.129 -4.3,-5.309 -6.4,-12.93 -6.4,-22.809 0,-20.633 8.32,-30.941 25,-30.941 15.82,0 23.75,10.55 23.75,31.718 0,20.082 -7.97,30.161 -23.91,30.161 z" /><path
         id="path66"
         style="fill:#254d73;fill-opacity:1;fill-rule:nonzero;stroke:none"
         d="m 2531.21,508.359 c -5.62,0 -10.23,1.641 -13.75,5 -3.55,3.321 -5.31,7.379 -5.31,12.192 0,5 1.76,9.058 5.31,12.179 3.52,3.129 8.13,4.692 13.75,4.692 5.63,0 10.2,-1.563 13.75,-4.692 3.52,-3.121 5.31,-7.179 5.31,-12.179 0,-5 -1.79,-9.141 -5.31,-12.352 -3.55,-3.238 -8.12,-4.84 -13.75,-4.84 z m 16.41,-124.531 h -33.2813 v 107.504 h 33.2813 z" /><path
         id="path68"
         style="fill:#254d73;fill-opacity:1;fill-rule:nonzero;stroke:none"
         d="m 2679.57,383.828 h -33.12 v 59.692 c 0,16.64 -5.94,25 -17.82,25 -5.74,0 -10.47,-2.188 -14.22,-6.571 -3.67,-4.367 -5.46,-10 -5.46,-16.867 v -61.254 h -33.29 v 107.504 h 33.29 v -17.031 h 0.31 c 7.89,13.121 19.41,19.679 34.53,19.679 23.83,0 35.78,-14.8 35.78,-44.371 z" /><path
         id="path70"
         style="fill:#254d73;fill-opacity:1;fill-rule:nonzero;stroke:none"
         d="m 2835.27,517.582 c -4.29,1.637 -8.36,2.5 -12.18,2.5 -10.75,0 -16.1,-5.781 -16.1,-17.352 v -11.398 h 24.69 v -24.531 h -24.69 v -82.973 h -32.97 v 82.973 h -18.12 v 24.531 h 18.12 v 13.277 c 0,12.27 3.95,22.192 11.88,29.692 8.01,7.5 18.9,11.25 32.65,11.25 6.65,0 12.23,-0.75 16.72,-2.192 z" /><path
         id="path72"
         style="fill:#254d73;fill-opacity:1;fill-rule:nonzero;stroke:none"
         d="m 2898.71,381.172 c -17.93,0 -32.03,5 -42.34,15 -10.24,10.078 -15.32,23.75 -15.32,40.937 0,17.813 5.32,31.723 15.94,41.723 10.71,10.078 25.16,15.148 43.28,15.148 17.82,0 31.76,-5.07 41.88,-15.148 10.19,-10 15.31,-23.281 15.31,-39.852 0,-17.808 -5.27,-31.949 -15.78,-42.339 -10.43,-10.313 -24.77,-15.469 -42.97,-15.469 z m 0.94,87.348 c -7.93,0 -14.06,-2.739 -18.44,-8.129 -4.3,-5.309 -6.41,-12.93 -6.41,-22.809 0,-20.633 8.32,-30.941 25,-30.941 15.82,0 23.75,10.55 23.75,31.718 0,20.082 -7.96,30.161 -23.9,30.161 z" /><path
         id="path74"
         style="fill:#254d73;fill-opacity:1;fill-rule:nonzero;stroke:none"
         d="m 3049.1,461.48 c -3.98,2.071 -8.59,3.129 -13.9,3.129 -7.19,0 -12.82,-2.66 -16.88,-7.968 -4.06,-5.231 -6.09,-12.34 -6.09,-21.411 v -51.402 h -33.28 v 107.504 h 33.28 v -20 h 0.31 c 5.31,14.566 14.76,21.867 28.44,21.867 3.43,0 6.13,-0.429 8.12,-1.25 z" /><path
         id="path76"
         style="fill:#254d73;fill-opacity:1;fill-rule:nonzero;stroke:none"
         d="m 3188.87,385.078 c -4.92,-2.578 -12.31,-3.906 -22.19,-3.906 -23.36,0 -35,12.109 -35,36.41 v 49.219 h -17.34 v 24.531 h 17.34 v 23.117 l 33.12,9.531 v -32.648 h 24.07 v -24.531 h -24.07 v -43.442 c 0,-11.168 4.42,-16.718 13.29,-16.718 3.51,0 7.11,0.98 10.78,2.968 z" /><path
         id="path78"
         style="fill:#254d73;fill-opacity:1;fill-rule:nonzero;stroke:none"
         d="m 3310.74,383.828 h -33.12 v 61.094 c 0,15.699 -5.74,23.598 -17.19,23.598 -5.86,0 -10.59,-2.188 -14.22,-6.571 -3.67,-4.367 -5.47,-10 -5.47,-16.867 v -61.254 h -33.28 v 159.223 h 33.28 v -67.66 h 0.31 c 8.13,12.379 19.15,18.589 33.13,18.589 24.37,0 36.56,-14.679 36.56,-44.058 z" /><path
         id="path80"
         style="fill:#254d73;fill-opacity:1;fill-rule:nonzero;stroke:none"
         d="m 3433.4,428.199 h -70 c 1.01,-15.617 10.82,-23.429 29.37,-23.429 11.88,0 22.27,2.73 31.25,8.281 v -23.91 c -9.92,-5.313 -22.81,-7.969 -38.75,-7.969 -17.42,0 -30.89,4.769 -40.47,14.379 -9.6,9.679 -14.37,23.121 -14.37,40.308 0,17.891 5.16,32.071 15.47,42.5 10.39,10.391 23.16,15.621 38.28,15.621 15.7,0 27.85,-4.679 36.41,-14.058 8.51,-9.301 12.81,-21.871 12.81,-37.813 z m -30.63,20.321 c 0,15.39 -6.25,23.121 -18.75,23.121 -5.31,0 -9.96,-2.262 -13.9,-6.719 -3.87,-4.371 -6.21,-9.84 -7.03,-16.402 z" /><path
         id="path82"
         style="fill:#254d73;fill-opacity:1;fill-rule:nonzero;stroke:none"
         d="m 3651.17,383.828 h -34.22 l -62.03,94.531 c -3.67,5.512 -6.21,9.692 -7.65,12.5 h -0.32 c 0.51,-5.308 0.78,-13.437 0.78,-24.379 v -82.652 h -32.03 v 150.473 h 36.57 l 59.68,-91.571 c 2.82,-4.179 5.35,-8.281 7.66,-12.339 h 0.31 c -0.54,3.519 -0.78,10.468 -0.78,20.781 v 83.129 h 32.03 z" /><path
         id="path84"
         style="fill:#254d73;fill-opacity:1;fill-rule:nonzero;stroke:none"
         d="m 3779.1,428.199 h -70 c 1.02,-15.617 10.82,-23.429 29.38,-23.429 11.87,0 22.26,2.73 31.25,8.281 v -23.91 c -9.93,-5.313 -22.82,-7.969 -38.75,-7.969 -17.43,0 -30.9,4.769 -40.47,14.379 -9.61,9.679 -14.38,23.121 -14.38,40.308 0,17.891 5.16,32.071 15.47,42.5 10.39,10.391 23.17,15.621 38.28,15.621 15.71,0 27.85,-4.679 36.41,-14.058 8.51,-9.301 12.81,-21.871 12.81,-37.813 z m -30.62,20.321 c 0,15.39 -6.25,23.121 -18.75,23.121 -5.32,0 -9.96,-2.262 -13.91,-6.719 -3.87,-4.371 -6.21,-9.84 -7.03,-16.402 z" /><path
         id="path86"
         style="fill:#254d73;fill-opacity:1;fill-rule:nonzero;stroke:none"
         d="m 3902.81,491.332 -35.47,-52.031 35.32,-55.473 h -38.28 l -15.47,28.902 c -1.37,2.391 -2.89,5.668 -4.53,9.852 h -0.47 c -1.06,-2.934 -2.5,-6.102 -4.38,-9.531 l -15.62,-29.223 h -38.13 l 36.41,53.594 -34.22,53.91 h 38.44 l 15.31,-30.16 c 2.07,-3.981 3.51,-7.301 4.37,-10 h 0.47 c 1.02,3.207 2.54,6.637 4.53,10.308 l 15.63,29.852 z" /><path
         id="path88"
         style="fill:#254d73;fill-opacity:1;fill-rule:nonzero;stroke:none"
         d="m 3982.77,385.078 c -4.92,-2.578 -12.3,-3.906 -22.18,-3.906 -23.36,0 -35,12.109 -35,36.41 v 49.219 h -17.35 v 24.531 h 17.35 v 23.117 l 33.12,9.531 v -32.648 h 24.06 v -24.531 h -24.06 v -43.442 c 0,-11.168 4.41,-16.718 13.28,-16.718 3.52,0 7.11,0.98 10.78,2.968 z" /><path
         id="path90"
         style="fill:#254d73;fill-opacity:1;fill-rule:nonzero;stroke:none"
         d="m 4187.46,393.98 c -14.69,-8.55 -32.97,-12.808 -54.84,-12.808 -24.18,0 -43.24,6.719 -57.19,20.16 -13.98,13.438 -20.94,31.867 -20.94,55.309 0,23.629 7.58,42.89 22.81,57.808 15.32,15 35.63,22.5 60.94,22.5 15.94,0 30,-2.258 42.19,-6.719 v -31.71 c -11.68,6.64 -25.9,10 -42.66,10 -14.06,0 -25.54,-4.61 -34.37,-13.75 -8.87,-9.071 -13.28,-21.25 -13.28,-36.571 0,-15.429 3.94,-27.418 11.87,-35.929 8.01,-8.438 18.75,-12.661 32.19,-12.661 8.12,0 14.57,1.129 19.37,3.442 v 29.531 h -30.15 v 27.027 h 64.06 z" /><path
         id="path92"
         style="fill:#254d73;fill-opacity:1;fill-rule:nonzero;stroke:none"
         d="m 4310.04,428.199 h -70 c 1.01,-15.617 10.82,-23.429 29.37,-23.429 11.88,0 22.27,2.73 31.25,8.281 v -23.91 c -9.92,-5.313 -22.81,-7.969 -38.75,-7.969 -17.42,0 -30.89,4.769 -40.46,14.379 -9.61,9.679 -14.38,23.121 -14.38,40.308 0,17.891 5.16,32.071 15.47,42.5 10.39,10.391 23.16,15.621 38.28,15.621 15.7,0 27.85,-4.679 36.41,-14.058 8.51,-9.301 12.81,-21.871 12.81,-37.813 z m -30.63,20.321 c 0,15.39 -6.25,23.121 -18.75,23.121 -5.31,0 -9.96,-2.262 -13.9,-6.719 -3.87,-4.371 -6.21,-9.84 -7.03,-16.402 z" /><path
         id="path94"
         style="fill:#254d73;fill-opacity:1;fill-rule:nonzero;stroke:none"
         d="m 4433.75,383.828 h -33.13 v 59.692 c 0,16.64 -5.93,25 -17.81,25 -5.74,0 -10.47,-2.188 -14.22,-6.571 -3.67,-4.367 -5.47,-10 -5.47,-16.867 v -61.254 h -33.28 v 107.504 h 33.28 v -17.031 h 0.32 c 7.89,13.121 19.41,19.679 34.53,19.679 23.83,0 35.78,-14.8 35.78,-44.371 z" /></g></g></svg>